# xmcd
#
# Track frame offsets:
# 182
# 12160
# 23945
# 38265
# 54465
# 72705
# 87787
# 102770
# 119897
# 132312
# 150147
# 164347
#
# Disc length: 2361 seconds
#
#
# Revision: 0
# Processed by: cddbd v1.5.1PL0 Copyright (c) Steve Scherf et al.
# Submitted via: FreeRIP 2.931 
#
DISCID=9209370c
DTITLE=Teodoro e Sampaio - Banho de Amor
DYEAR=1900
DGENRE=Country
TTITLE0=Banho de Amor
TTITLE1=Estrela Caida
TTITLE2=O Amor Venceu De Novo
TTITLE3=To Apaixonado
TTITLE4=Paixão Proibida
TTITLE5=Prisão De Papel
TTITLE6=Esta Noite Te Amarei
TTITLE7=Más Lembranças de Você
TTITLE8=Sete Noites De Paixão
TTITLE9=Rock Da Casa Fechada
TTITLE10=Sedução
TTITLE11=Passaro De Aço
EXTD=
EXTT0=
EXTT1=
EXTT2=
EXTT3=
EXTT4=
EXTT5=
EXTT6=
EXTT7=
EXTT8=
EXTT9=
EXTT10=
EXTT11=
PLAYORDER=
